<svg width="55" height="55" viewBox="0 0 55 55" fill="none" xmlns="http://www.w3.org/2000/svg">
<rect x="1" y="1" width="53" height="53" rx="26.5" stroke="#629576" stroke-width="2"/>
<path d="M24.4415 18.76C26.0253 15.92 26.8165 14.5 28.0003 14.5C29.184 14.5 29.9753 15.92 31.559 18.76L31.969 19.495C32.419 20.3025 32.644 20.7062 32.994 20.9725C33.344 21.2387 33.7815 21.3375 34.6565 21.535L35.4515 21.715C38.5265 22.4112 40.0628 22.7588 40.429 23.935C40.794 25.11 39.7465 26.3363 37.6503 28.7875L37.1078 29.4213C36.5128 30.1175 36.214 30.4662 36.0803 30.8962C35.9465 31.3275 35.9915 31.7925 36.0815 32.7212L36.164 33.5675C36.4803 36.8387 36.639 38.4738 35.6815 39.2C34.724 39.9275 33.284 39.2637 30.4065 37.9387L29.6603 37.5962C28.8428 37.2187 28.434 37.0312 28.0003 37.0312C27.5665 37.0312 27.1578 37.2187 26.3403 37.5962L25.5953 37.9387C22.7165 39.2637 21.2765 39.9263 20.3203 39.2013C19.3615 38.4738 19.5203 36.8387 19.8365 33.5675L19.919 32.7225C20.009 31.7925 20.054 31.3275 19.919 30.8975C19.7865 30.4662 19.4878 30.1175 18.8928 29.4225L18.3503 28.7875C16.254 26.3375 15.2065 25.1113 15.5715 23.935C15.9378 22.7588 17.4753 22.41 20.5503 21.715L21.3453 21.535C22.219 21.3375 22.6553 21.2387 23.0065 20.9725C23.3565 20.7062 23.5815 20.3025 24.0315 19.495L24.4415 18.76Z" stroke="#629576" stroke-width="2"/>
</svg>
