<svg width="16" height="16" viewBox="0 0 16 16" fill="none" xmlns="http://www.w3.org/2000/svg">
<g id="&#209;&#132;&#208;&#176;&#208;&#178;&#208;&#184;&#208;&#186;&#208;&#190;&#208;&#189;">
<circle id="Ellipse 15" cx="8" cy="8" r="7" fill="white"/>
<path id="Vector" d="M15.936 3.22125C15.8969 3.20041 15.8542 3.21083 15.8151 3.22473C15.4845 3.33244 15.1787 3.46795 14.8551 3.6104C14.7734 3.64862 14.688 3.68337 14.6062 3.72159C13.728 4.10379 12.8321 4.44777 11.9716 4.78133C11.449 4.98285 10.9085 5.19133 10.3788 5.40675C10.4179 5.35463 10.457 5.29556 10.4712 5.22607C10.4854 5.14616 10.4606 5.06972 10.4072 5.02802C10.3468 4.98285 10.2686 4.98633 10.201 4.99675C10.1228 5.00718 10.0446 5.02455 9.9699 5.04192H9.97345L10.0126 5.02455C10.1868 4.95158 10.3752 4.85082 10.4606 4.67709C10.5103 4.56938 10.5068 4.4165 10.4001 4.34701C10.3077 4.28447 10.1903 4.31226 10.073 4.35048L9.87034 4.4165C9.96279 4.36786 10.0552 4.31574 10.137 4.2532C10.2828 4.14201 10.3752 4.00303 10.3966 3.86057C10.4072 3.78413 10.393 3.68337 10.3148 3.63473C10.2472 3.59303 10.1619 3.6104 10.0872 3.63125C10.0446 3.64167 10.0019 3.65557 9.96279 3.66947C10.0339 3.6243 10.1015 3.57913 10.1619 3.52354C10.3254 3.38108 10.4214 3.21083 10.4321 3.04405C10.4357 2.96414 10.4143 2.86685 10.3326 2.83558C10.2721 2.81126 10.2046 2.83558 10.1406 2.86337C10.2081 2.79736 10.2686 2.73134 10.3254 2.66532C10.4286 2.54371 10.5388 2.39431 10.5388 2.22406C10.5388 2.13719 10.5032 2.03643 10.4143 2.00863C10.3468 1.98431 10.2721 2.01558 10.2046 2.05033C9.95923 2.17541 9.72457 2.32829 9.52546 2.46033C8.84992 2.91549 8.24549 3.55481 7.77261 4.31226C7.31395 5.04887 6.98329 5.86192 6.71663 6.5603C6.30064 6.51513 5.97709 6.36225 5.66776 6.21632C5.2411 6.0148 4.80022 5.80285 4.12113 5.88971C3.60558 5.95573 3.13981 6.3553 2.98337 6.85911C2.96915 6.90776 2.95493 6.9564 2.94426 7.00157C2.91582 7.11971 2.88382 7.24479 2.81271 7.34208C2.71316 7.48106 2.56027 7.52623 2.36472 7.5853C2.29005 7.60614 2.21183 7.63047 2.13006 7.66174C1.31585 7.96055 0.643863 8.26283 0.00743158 8.75622C0.000320607 8.76317 -0.00323489 8.77359 0.00387608 8.78054C0.010987 8.78749 0.0216535 8.79097 0.0287645 8.78402C0.775416 8.31495 1.59318 7.98487 2.46427 7.80419C2.81626 7.73123 3.17892 7.68953 3.43136 7.87368C3.72647 8.09258 4.04291 8.24546 4.32379 8.30453C4.64734 8.5686 5.00644 8.74232 5.38688 8.81529C5.8562 9.54147 6.48552 10.1426 7.25351 10.6012C6.91574 11.0703 6.60285 11.5602 6.31842 12.0605C6.20108 12.2655 6.09087 12.4705 6.04109 12.6964C5.9842 12.9535 6.0162 13.1932 6.12998 13.3774C6.20464 13.492 6.33619 13.5581 6.48552 13.5476C6.64552 13.5372 6.76641 13.3982 6.81263 13.2697C6.84463 13.1759 6.88374 13.0855 6.92996 12.9952C6.85885 13.1863 6.80552 13.3948 6.81263 13.6067C6.82329 13.9368 6.99396 14.2286 7.24995 14.3537C7.37084 14.4128 7.50239 14.4267 7.6055 14.3885C7.81528 14.3086 7.87927 14.0653 7.93261 13.8708C7.9966 13.6345 8.08194 13.3982 8.18149 13.1724C8.14949 13.5859 8.17082 14.0028 8.24193 14.4128C8.27038 14.59 8.3166 14.7672 8.45526 14.8784C8.58681 14.9826 8.76103 15 8.93525 15C8.94947 15 8.9637 15 8.97792 15C9.14858 14.9965 9.32636 14.9861 9.45435 14.8853C9.59657 14.7742 9.63924 14.5865 9.66413 14.4197C9.70324 14.1557 9.7139 13.8847 9.70324 13.6171L9.81701 13.9298C9.87745 14.0966 9.94857 14.2634 10.1086 14.3294C10.3041 14.4128 10.5246 14.2877 10.6454 14.1383C10.8588 13.8812 10.9263 13.492 10.8268 13.0959C10.7877 12.9431 10.7272 12.7832 10.6383 12.606C10.7343 12.6859 10.8659 12.7728 11.0117 12.7693C11.2072 12.7624 11.3494 12.6026 11.417 12.4532C11.5592 12.1439 11.5059 11.7339 11.2712 11.383C11.1681 11.2301 11.033 11.0842 10.8517 10.9243C10.8872 10.9348 10.9228 10.9417 10.9583 10.9452C11.0472 10.9487 11.1503 10.9035 11.1823 10.8132C11.2072 10.7402 11.1788 10.6638 11.1432 10.5943C10.7699 9.83681 10.1086 9.20444 9.3228 8.85351C9.42946 8.82919 9.52902 8.75622 9.58591 8.65199C9.6499 8.5408 9.67124 8.39834 9.65346 8.21419C9.64635 8.1586 9.63924 8.09953 9.63213 8.04394C9.62857 8.02657 9.62502 8.00572 9.62502 7.98835C9.66413 8.03004 9.70679 8.05784 9.75301 8.07521C9.84901 8.10995 9.94857 8.09606 10.0161 8.07521C10.0979 8.05089 10.1761 8.00572 10.2508 7.96402C10.3183 7.9258 10.3823 7.88411 10.4037 7.81114C10.4179 7.75555 10.4001 7.69301 10.3503 7.62699C10.3468 7.62004 10.3397 7.61309 10.3361 7.60614C10.5921 7.68953 10.8943 7.64436 11.1005 7.48453C11.1752 7.42547 11.2143 7.3664 11.225 7.30386C11.2321 7.25174 11.2179 7.19962 11.1788 7.14403C11.3459 7.19267 11.5414 7.18572 11.7299 7.12318C11.9752 7.03979 12.185 6.88344 12.3841 6.73056C12.4125 6.70971 12.4943 6.64717 12.473 6.57073C12.4623 6.53598 12.4303 6.51166 12.3983 6.49081C12.3556 6.46302 12.3094 6.43869 12.2632 6.41785C12.7645 6.39005 13.2552 6.18852 13.6214 5.85844C13.7103 5.77853 13.7423 5.70556 13.7209 5.63954C13.7032 5.58048 13.6463 5.54573 13.5858 5.51794C13.5112 5.48319 13.4365 5.44844 13.3583 5.42065C13.6036 5.38938 13.8632 5.35116 14.112 5.26429C14.3503 5.1809 14.6774 5.01412 14.8694 4.70489C14.9085 4.64235 14.9156 4.5937 14.8907 4.55548C14.8587 4.50684 14.7947 4.50684 14.7449 4.51031C14.5814 4.52074 14.4143 4.53811 14.2507 4.55548C14.5031 4.46514 14.7662 4.36438 15.0187 4.23235C15.4382 4.00998 15.7511 3.73896 15.9573 3.42278C15.9751 3.39498 15.9964 3.36371 16 3.32549C15.9858 3.28727 15.9751 3.2421 15.936 3.22125Z" fill="#629576"/>
</g>
</svg>
