<svg width="438" height="363" viewBox="0 0 438 363" fill="none" xmlns="http://www.w3.org/2000/svg">
<path d="M435.535 34.2694C434.468 33.688 433.304 33.9787 432.237 34.3663C423.218 37.3701 414.877 41.1492 406.051 45.122C403.82 46.1879 401.493 47.1569 399.262 48.2228C375.306 58.8816 350.866 68.4746 327.395 77.7769C313.138 83.397 298.396 89.211 283.945 95.2187C285.012 93.7652 286.079 92.1179 286.466 90.18C286.854 87.9513 286.176 85.8195 284.721 84.6567C283.072 83.397 280.938 83.4939 279.095 83.7846C276.962 84.0753 274.828 84.5598 272.791 85.0443H272.888L273.955 84.5598C278.708 82.5249 283.848 79.7149 286.176 74.8699C287.533 71.8661 287.436 67.6025 284.527 65.6646C282.005 63.9204 278.805 64.6956 275.604 65.7615L270.076 67.6025C272.597 66.246 275.119 64.7925 277.35 63.0483C281.326 59.9475 283.848 56.0716 284.43 52.0987C284.721 49.967 284.333 47.1569 282.199 45.8003C280.356 44.6375 278.029 45.122 275.992 45.7034C274.828 45.9941 273.664 46.3817 272.597 46.7693C274.537 45.5096 276.38 44.2499 278.029 42.6996C282.49 38.7267 285.109 33.9787 285.4 29.3275C285.497 27.0989 284.915 24.3857 282.684 23.5136C281.035 22.8353 279.192 23.5136 277.447 24.2888C279.289 22.4477 280.938 20.6066 282.49 18.7656C285.303 15.3741 288.309 11.2075 288.309 6.45942C288.309 4.03695 287.339 1.22688 284.915 0.451693C283.072 -0.226599 281.035 0.645495 279.192 1.61448C272.5 5.10284 266.099 9.36638 260.668 13.0485C242.241 25.7423 225.753 43.5716 212.854 64.6956C200.342 85.2381 191.323 107.912 184.049 127.389C172.701 126.129 163.875 121.866 155.438 117.796C143.799 112.176 131.773 106.265 113.248 108.688C99.1852 110.529 86.48 121.672 82.2126 135.722C81.8246 137.079 81.4367 138.436 81.1457 139.695C80.3698 142.99 79.497 146.478 77.5572 149.191C74.8416 153.067 70.6712 154.327 65.3369 155.974C63.3002 156.556 61.1665 157.234 58.9358 158.106C36.7258 166.439 18.3954 174.869 1.03475 188.629C0.840777 188.823 0.74379 189.114 0.937763 189.307C1.13174 189.501 1.4227 189.598 1.61667 189.404C21.9839 176.323 44.2908 167.118 68.0525 162.079C77.6542 160.044 87.5468 158.881 94.4329 164.017C102.483 170.121 111.115 174.385 118.777 176.032C127.602 183.397 137.398 188.242 147.776 190.276C160.578 210.528 177.744 227.292 198.694 240.082C189.48 253.164 180.945 266.826 173.186 280.78C169.985 286.497 166.979 292.214 165.621 298.512C164.069 305.683 164.942 312.369 168.046 317.504C170.082 320.702 173.671 322.543 177.744 322.253C182.109 321.962 185.406 318.086 186.667 314.501C187.54 311.884 188.607 309.365 189.868 306.846C187.928 312.175 186.473 317.989 186.667 323.9C186.958 333.105 191.614 341.245 198.597 344.733C201.894 346.38 205.483 346.768 208.295 345.702C214.017 343.473 215.763 336.69 217.218 331.264C218.964 324.675 221.291 318.086 224.007 311.787C223.134 323.318 223.716 334.946 225.656 346.38C226.432 351.322 227.693 356.264 231.475 359.365C235.064 362.272 239.816 362.756 244.568 362.756C244.956 362.756 245.344 362.756 245.732 362.756C250.387 362.659 255.237 362.369 258.728 359.559C262.608 356.458 263.772 351.225 264.451 346.574C265.517 339.21 265.808 331.652 265.517 324.191L268.621 332.911C270.27 337.563 272.209 342.214 276.574 344.055C281.908 346.38 287.921 342.892 291.219 338.725C297.038 331.555 298.881 320.702 296.165 309.656C295.098 305.392 293.449 300.935 291.025 295.993C293.643 298.222 297.232 300.644 301.208 300.547C306.543 300.353 310.422 295.896 312.265 291.729C316.144 283.105 314.69 271.671 308.288 261.885C305.476 257.621 301.79 253.551 296.844 249.094C297.814 249.385 298.784 249.578 299.754 249.675C302.178 249.772 304.991 248.513 305.864 245.993C306.543 243.958 305.767 241.827 304.797 239.889C294.613 218.765 276.574 201.129 255.14 191.342C258.049 190.664 260.765 188.629 262.317 185.722C264.063 182.621 264.644 178.649 264.16 173.513C263.966 171.963 263.772 170.315 263.578 168.765C263.481 168.28 263.384 167.699 263.384 167.215C264.451 168.377 265.614 169.152 266.875 169.637C269.494 170.606 272.209 170.218 274.052 169.637C276.283 168.959 278.417 167.699 280.453 166.536C282.296 165.47 284.042 164.308 284.624 162.273C285.012 160.722 284.527 158.978 283.169 157.137C283.072 156.943 282.878 156.749 282.781 156.556C289.764 158.881 298.008 157.622 303.633 153.164C305.67 151.517 306.737 149.87 307.028 148.125C307.222 146.672 306.834 145.218 305.767 143.668C310.325 145.025 315.659 144.831 320.8 143.087C327.492 140.761 333.214 136.401 338.645 132.137C339.421 131.556 341.652 129.812 341.07 127.68C340.779 126.711 339.906 126.033 339.033 125.451C337.869 124.676 336.609 123.998 335.348 123.416C349.023 122.641 362.407 117.021 372.397 107.816C374.821 105.587 375.694 103.552 375.112 101.711C374.627 100.064 373.076 99.0947 371.427 98.3195C369.39 97.3505 367.353 96.3815 365.22 95.6063C371.912 94.7342 378.992 93.6683 385.781 91.2458C392.279 88.9203 401.202 84.2691 406.439 75.6451C407.506 73.901 407.7 72.5444 407.021 71.4785C406.148 70.1219 404.402 70.1219 403.044 70.2188C398.583 70.5095 394.025 70.994 389.563 71.4785C396.449 68.9591 403.626 66.1491 410.512 62.4669C421.957 56.2654 430.492 48.7073 436.117 39.8895C436.602 39.1143 437.184 38.2422 437.281 37.1763C436.893 36.1104 436.602 34.8508 435.535 34.2694Z" fill="#629576"/>
<path d="M187.344 127.972C188.799 128.069 190.253 128.069 191.708 128.069C216.052 127.681 239.038 115.084 261.248 105.297C267.455 102.584 273.759 99.8711 279.966 97.2549" stroke="#393939" stroke-width="2" stroke-miterlimit="10" stroke-linecap="round" stroke-linejoin="round"/>
<path d="M186.376 179.331C176.483 186.405 163.681 190.087 151.363 189.893" stroke="#393939" stroke-width="2" stroke-miterlimit="10" stroke-linecap="round" stroke-linejoin="round"/>
<path d="M229.828 168.369C230.313 174.183 231.38 179.997 232.932 185.617C233.514 187.652 234.581 189.978 236.617 190.171C238.654 190.365 240.109 188.33 240.982 186.392C242.825 182.226 243.989 177.768 244.279 173.214" stroke="#393939" stroke-width="2" stroke-miterlimit="10" stroke-linecap="round" stroke-linejoin="round"/>
<path d="M243.215 180.094C243.506 181.644 243.894 183.098 244.476 184.454C245.64 187.167 247.773 189.59 250.489 190.559" stroke="#393939" stroke-width="2" stroke-miterlimit="10" stroke-linecap="round" stroke-linejoin="round"/>
<path d="M187.926 143.375C203.056 145.119 218.38 140.952 232.152 134.46C245.924 127.968 258.532 119.247 271.528 111.398C289.665 100.449 308.771 91.0495 328.556 83.3945" stroke="#393939" stroke-width="2" stroke-miterlimit="10" stroke-linecap="round" stroke-linejoin="round"/>
<path d="M114.019 140.277C112.467 139.696 110.818 139.114 109.072 139.114C107.327 139.114 105.581 139.696 104.514 140.955C103.35 142.215 102.962 144.25 103.835 145.703C104.708 147.06 106.551 147.738 108.103 147.351C109.654 146.963 111.109 145.994 112.079 144.637C113.146 143.378 113.825 141.827 114.019 140.277Z" stroke="#393939" stroke-width="2" stroke-miterlimit="10" stroke-linecap="round" stroke-linejoin="round"/>
<path d="M92.0115 157.813C90.5567 149.382 93.6603 140.371 99.6734 134.169C106.366 127.289 116.355 123.995 125.957 124.576C130.515 124.867 135.074 125.933 138.953 128.258C141.087 129.518 143.026 131.068 145.16 132.231C151.464 135.526 159.223 134.848 165.721 131.941" stroke="#393939" stroke-width="2" stroke-miterlimit="10" stroke-linecap="round" stroke-linejoin="round"/>
<path d="M200.922 241.729C206.644 248.222 214.791 253.26 223.035 255.392" stroke="#393939" stroke-width="2" stroke-miterlimit="10" stroke-linecap="round" stroke-linejoin="round"/>
<path d="M195.977 294.731C200.438 288.142 205.772 282.134 211.689 276.514" stroke="#393939" stroke-width="2" stroke-miterlimit="10" stroke-linecap="round" stroke-linejoin="round"/>
<path d="M225.949 305.881C227.986 301.811 230.217 297.936 232.641 294.06" stroke="#393939" stroke-width="2" stroke-miterlimit="10" stroke-linecap="round" stroke-linejoin="round"/>
<path d="M264.256 317.41C263.481 310.24 262.123 303.166 260.086 296.189" stroke="#393939" stroke-width="2" stroke-miterlimit="10" stroke-linecap="round" stroke-linejoin="round"/>
<path d="M287.727 290.956C286.078 288.049 284.429 285.239 282.684 282.429" stroke="#393939" stroke-width="2" stroke-miterlimit="10" stroke-linecap="round" stroke-linejoin="round"/>
<path d="M291.801 245.507C289.764 243.86 287.631 242.212 285.594 240.662" stroke="#393939" stroke-width="2" stroke-miterlimit="10" stroke-linecap="round" stroke-linejoin="round"/>
</svg>
