<svg width="75" height="75" viewBox="0 0 75 75" fill="none" xmlns="http://www.w3.org/2000/svg">
<rect width="75" height="75" rx="10" fill="#6C8FC3"/>
<path d="M16.2846 53.6559L28.2761 41.5424C28.6601 41.1545 29.2841 41.1461 29.6783 41.5236L35.1613 46.7732C35.5354 47.1314 36.121 47.1446 36.511 46.8038L43.5041 40.6907C43.8966 40.3475 44.487 40.3636 44.8603 40.7276L48.8659 44.633M57.8346 24.458C57.8346 23.6292 57.5054 22.8343 56.9193 22.2483C56.3333 21.6622 55.5384 21.333 54.7096 21.333H19.293C18.4642 21.333 17.6693 21.6622 17.0833 22.2483C16.4972 22.8343 16.168 23.6292 16.168 24.458V32.833C16.168 33.3853 16.6157 33.833 17.168 33.833H56.8346C57.3869 33.833 57.8346 33.3853 57.8346 32.833V24.458Z" stroke="white" stroke-width="3" stroke-linecap="round" stroke-linejoin="round"/>
<path d="M57.8346 31.7497V51.5413C57.8346 52.3701 57.5054 53.165 56.9193 53.7511C56.3333 54.3371 55.5384 54.6663 54.7096 54.6663H24.5013M31.9096 27.583H50.6596M23.5742 27.583H25.6576M16.168 31.7497V41.1247" stroke="white" stroke-width="3" stroke-linecap="round" stroke-linejoin="round"/>
</svg>
