<svg width="75" height="75" viewBox="0 0 75 75" fill="none" xmlns="http://www.w3.org/2000/svg">
<rect width="75" height="75" rx="10" fill="#7CBA90"/>
<g clip-path="url(#clip0_868_16727)">
<path d="M18.8647 54.9212L32.1231 41.6629M48.8189 35.7671L44.8502 47.6754C44.7865 47.8659 44.678 48.0382 44.5336 48.1778C44.3893 48.3174 44.2135 48.4202 44.021 48.4775L19.6918 55.7108C19.4726 55.7759 19.2398 55.7796 19.0186 55.7216C18.7975 55.6635 18.5965 55.546 18.4375 55.3816C18.2785 55.2173 18.1677 55.0125 18.117 54.7895C18.0663 54.5665 18.0778 54.334 18.1501 54.1171L26.0501 30.4212C26.1068 30.2511 26.1993 30.0951 26.3215 29.9639C26.4438 29.8327 26.5928 29.7293 26.7585 29.6608L37.9814 25.04C38.2096 24.9457 38.4605 24.9212 38.7026 24.9694C38.9447 25.0176 39.1671 25.1364 39.3418 25.3108L48.5168 34.4879C48.681 34.652 48.7962 34.8586 48.8496 35.0846C48.9029 35.3105 48.8923 35.5468 48.8189 35.7671Z" stroke="white" stroke-width="3" stroke-linecap="round" stroke-linejoin="round"/>
<path d="M50.3386 18.6295L55.2636 23.5545C55.6337 23.9085 55.9293 24.333 56.1331 24.8029C56.337 25.2728 56.4449 25.7786 56.4505 26.2908C56.4562 26.803 56.3595 27.3111 56.1661 27.7854C55.9727 28.2597 55.6865 28.6906 55.3244 29.0527C54.9622 29.4149 54.5313 29.7011 54.057 29.8945C53.5827 30.0879 53.0746 30.1846 52.5624 30.1789C52.0503 30.1733 51.5444 30.0654 51.0745 29.8615C50.6046 29.6577 50.1802 29.3621 49.8261 28.992L44.899 24.067C44.2041 23.3406 43.8212 22.371 43.8323 21.3658C43.8434 20.3606 44.2476 19.3997 44.9584 18.6889C45.6693 17.9781 46.6302 17.5738 47.6353 17.5627C48.6405 17.5516 49.6122 17.9345 50.3386 18.6295Z" stroke="white" stroke-width="3" stroke-linecap="round" stroke-linejoin="round"/>
<path d="M36.5407 37.2421C36.2525 36.9436 35.9076 36.7056 35.5264 36.5418C35.1451 36.378 34.7351 36.2918 34.3201 36.2882C33.9052 36.2846 33.4937 36.3637 33.1096 36.5208C32.7256 36.6779 32.3767 36.91 32.0833 37.2034C31.7898 37.4968 31.5578 37.8457 31.4007 38.2298C31.2435 38.6138 31.1645 39.0253 31.1681 39.4402C31.1717 39.8552 31.2579 40.2652 31.4217 40.6465C31.5855 41.0278 31.8235 41.3726 32.122 41.6609C32.7114 42.2301 33.5008 42.5451 34.3201 42.538C35.1395 42.5308 35.9233 42.2022 36.5027 41.6228C37.0821 41.0434 37.4107 40.2596 37.4179 39.4402C37.425 38.6209 37.11 37.8315 36.5407 37.2421Z" stroke="white" stroke-width="3" stroke-linecap="round" stroke-linejoin="round"/>
</g>
<defs>
<clipPath id="clip0_868_16727">
<rect width="50" height="50" fill="white" transform="translate(12 12)"/>
</clipPath>
</defs>
</svg>
